<svg xmlns="http://www.w3.org/2000/svg" version="1.1" viewBox="-5.0 -10.0 110.0 135.0">
 <path d="m90.172 57.113 1.9297-0.78125c0.60547-0.24609 1.0391-0.79297 1.1367-1.4375 0.10156-0.64844-0.15234-1.2969-0.65625-1.7148-0.17969-0.14453-4.4805-3.5938-12.68-4.2031-1.1328-0.085937-2.0664-1.0156-2.1836-2.3164-0.078125-0.875 0.33984-1.7305 1.0898-2.2266 0.32031-0.21484 0.66406-0.42969 1.0273-0.66406 3.1328-2.0039 7.8672-5.0391 9.0664-10.73 0.19141-0.90234-0.31641-1.8125-1.1836-2.1211l-1.9648-0.71094c2.0703-3.4219 5.5-10.801 4.3398-20.773-0.097656-0.84375-0.75781-1.5156-1.6055-1.625-0.79297-0.10156-6.5547-0.76953-11.23 0.55078l0.097657-0.66406c0.074219-0.51562-0.070313-1.043-0.40234-1.4453s-0.82031-0.64844-1.3438-0.67188c-0.125-0.003906-13.98-0.49219-19.559 13.078l-3.8359 9.6406c-0.24609 0.61328-0.88672 0.96875-1.5234 0.88672-0.75781-0.10547-1.3086-0.80078-1.2188-1.5508 0.46484-4 0.63672-9.8867-1.1562-15.191-0.19922-0.58594-0.67969-1.0352-1.2773-1.1953-0.59766-0.16406-1.2422-0.011719-1.7031 0.40234l-0.94922 0.83594c-0.95312-2.0664-2.7969-4.7852-6.2852-6.6875-0.48828-0.26562-1.0664-0.30078-1.5742-0.09375-0.48438 0.19141-4.5156 2.0703-6.2852 11.133l-3.3555-1.0195c-0.51172-0.15234-1.0664-0.082031-1.5195 0.20312-0.45313 0.28125-0.76172 0.75-0.84766 1.2773-0.078125 0.48828-1.4961 9.8281 2.5117 17.02-3.1367-0.42188-7.3789-0.40234-12.5 0.98828-0.52734 0.14453-0.96484 0.51172-1.1953 1.0078-0.23047 0.49609-0.23047 1.0664 0 1.5625l0.30078 0.64453c-2.4297-0.125-5.7812-0.17188-8.3789 0.25-0.51172 0.082031-0.96875 0.37891-1.2539 0.81641-0.28516 0.43359-0.37109 0.96875-0.24609 1.4727 0.078126 0.30859 1.7969 6.8008 6.1719 10.219l-1.6133 2.2969c-0.57812 0.82031-0.39844 1.9492 0.40234 2.5469 7.5977 5.6875 15.219 6.8086 25.48 5.9375-12.855 10.367-23.07 17.148-23.285 17.289-0.85547 0.5625-1.0898 1.7109-0.52734 2.5664 0.35547 0.53906 0.94531 0.83203 1.5469 0.83203 0.34766 0 0.70312-0.10156 1.0195-0.30469 0.21484-0.14453 10.773-7.1523 24-17.859-1.1289 5.3242-1.875 13.086 1.8867 17.512 0.48047 0.57031 1.25 0.78516 1.9648 0.57031l1.2383-0.38672c0.35938 2.4961 1.1289 6.1953 2.6484 7.9102 0.67578 0.75781 1.8281 0.82812 2.5938 0.17578l1.6484-1.418 3.2109 4.6797c0.35547 0.51562 0.93359 0.80469 1.5312 0.80469 0.26562 0 0.53125-0.054688 0.78516-0.17578 0.32422-0.15234 7.5-3.6445 8.4375-14.473l1.6797 0.45312c0.96094 0.25781 1.9453-0.28125 2.2461-1.2227 0.050781-0.15625 0.94141-3.0039 0.6875-6.2734 3.8789 0.99219 10.797 2.0547 17.723-0.36719 0.49219-0.17188 0.88672-0.54297 1.0938-1.0234 0.20703-0.48047 0.19531-1.0234-0.019531-1.5l-0.25781-0.5625c2.9219-0.58203 7.5664-2.0195 9.9141-5.4453 0.55469-0.80859 0.38281-1.9023-0.39062-2.5078l-5.4141-4.2188zm-6.9609 8.8555c-0.60547 0.042969-1.1484 0.38281-1.457 0.90625-0.30859 0.51953-0.34375 1.1602-0.089844 1.7148l0.39453 0.86328c-8.2344 2.0156-16.215-1.1016-16.305-1.1367-0.67969-0.26953-1.4648-0.11328-1.9844 0.39844-0.52344 0.51172-0.69531 1.2891-0.43359 1.9766 0.71094 1.8672 0.57812 4.0078 0.34766 5.4648l-2.0469-0.55078c-0.55859-0.14453-1.1484-0.03125-1.6055 0.32031-0.45703 0.35156-0.72656 0.89453-0.72656 1.4688 0 7.4453-3.2461 11.137-5.1211 12.645l-3.3555-4.8945c-0.29688-0.43359-0.76562-0.72266-1.2852-0.78906-0.082031-0.011719-0.16016-0.015625-0.24219-0.015625-0.44141 0-0.87109 0.15625-1.207 0.44922l-1.4375 1.2344c-0.58984-1.8203-1.0234-4.5156-1.1797-6.332-0.046874-0.5625-0.34766-1.0703-0.8125-1.3828-0.46484-0.31641-1.0469-0.39844-1.5859-0.23438l-2.082 0.64844c-2.6992-4.7969-0.45312-14.258 0.87109-18.188 0.82031-0.6875 1.6445-1.3867 2.4727-2.0977 1.8047 2.7656 3.1523 5.8047 4.082 9.2031l-1.8945 3.7812c-0.45703 0.91406-0.085938 2.0273 0.82812 2.4844 0.26562 0.13281 0.54688 0.19531 0.82422 0.19531 0.52344 0 1.0234-0.22266 1.3789-0.61719 0.17969 1.4297 0.32422 2.9023 0.39453 4.457 0.042969 0.99219 0.86328 1.7695 1.8477 1.7695h0.085938c1.0234-0.042969 1.8125-0.91016 1.7656-1.9336-0.17188-3.8203-0.66797-7.2812-1.4805-10.469-0.011719-0.042969-0.019531-0.082032-0.035156-0.125-0.003907-0.027344-0.015625-0.046875-0.019531-0.074219l1.0508 0.35547c0.19531 0.066406 0.39453 0.097656 0.58984 0.097656 0.77344 0 1.4961-0.48828 1.7539-1.2617 0.32812-0.96875-0.19141-2.0195-1.1641-2.3477l-3.6523-1.2305c-0.52734-1.3398-1.1328-2.6289-1.8086-3.8711 2.6055 0.69141 6.1484 1.5352 10.262 2.3008l1.0469 1.8945c0.33984 0.60938 0.96875 0.95703 1.6211 0.95703 0.30469 0 0.60938-0.074218 0.89453-0.23047 0.68359-0.37891 1.0273-1.1289 0.92969-1.8594 4.6562 0.69922 9.8008 1.2188 15.062 1.2734h0.019531c1.0156 0 1.8398-0.81641 1.8516-1.832 0.011719-1.0234-0.8125-1.8594-1.832-1.8711-1.2461-0.011719-2.4844-0.0625-3.7148-0.125 0.89844-0.35938 1.3867-1.3516 1.0742-2.2852-0.32422-0.96875-1.3594-1.5-2.3438-1.1719l-7.7773 2.5938c-7.5078-1.0273-13.938-2.6094-17.555-3.6133 0.97266-0.86328 1.9492-1.7383 2.9219-2.625h6.4062c1.0234 0 1.8516-0.82812 1.8516-1.8516s-0.82812-1.8516-1.8516-1.8516h-2.4258c2.8281-2.6797 5.625-5.4531 8.3398-8.293l3.1797 0.42969c0.085938 0.011719 0.16797 0.015625 0.25 0.015625 0.91406 0 1.7109-0.67578 1.832-1.6055 0.13672-1.0156-0.57422-1.9453-1.5859-2.082l-0.57812-0.078125c4.5195-4.9609 8.7148-10.09 12.254-15.262 0.57812-0.84375 0.35938-1.9961-0.48438-2.5742-0.84766-0.57812-2-0.35938-2.5742 0.48438-3.2305 4.7188-7.0156 9.4062-11.105 13.961v-0.88281c0-1.0234-0.82812-1.8516-1.8516-1.8516-1.0234 0-1.8516 0.82812-1.8516 1.8516v4.875c-2.5547 2.6836-5.1875 5.3047-7.8555 7.8477l0.32422-2.168c0.15234-1.0117-0.54297-1.9531-1.5586-2.1055-1.0039-0.13281-1.9531 0.54687-2.1055 1.5586l-1.0195 6.7852c-1.3164 1.1992-2.6289 2.3633-3.9336 3.5156-1.1289-1.8828-1.9297-4.3789-2.4883-7.168l2.6055-4.7773c0.49219-0.89453 0.16016-2.0234-0.73828-2.5117-0.89062-0.49219-2.0234-0.15625-2.5117 0.73828l-0.19531 0.35938c-0.55859-6.6758-0.21484-13.59 0.16016-17.148 0.10937-1.0195-0.62891-1.9297-1.6445-2.0352-1.0352-0.11719-1.9297 0.62891-2.0352 1.6445-0.035156 0.32031-0.28516 2.8047-0.41016 6.3516-0.58984-0.55859-1.4805-0.70703-2.2109-0.26172-0.875 0.52734-1.1562 1.668-0.625 2.543l2.8086 4.6445c0.10156 3.4219 0.40234 7.1055 1.0508 10.562 0.011719 0.0625 0.015625 0.125 0.035157 0.1875 0.25 1.2891 0.54687 2.543 0.90234 3.7383-1.2773-0.71875-2.7539-1.4453-4.4062-2.125l-1.2422-4.0273c-0.30078-0.97656-1.332-1.5273-2.3164-1.2227-0.97656 0.30078-1.5234 1.3398-1.2227 2.3164l0.44141 1.4375c-2.8438-0.8125-6.0586-1.4219-9.6719-1.6133-1.0234-0.042969-1.8945 0.72656-1.9492 1.75-0.054688 1.0234 0.73047 1.8945 1.75 1.9492 0.76172 0.039062 1.5 0.10547 2.2266 0.1875-0.77734 0.51172-1.082 1.5078-0.65625 2.3555 0.32422 0.64453 0.97656 1.0195 1.6562 1.0195 0.28125 0 0.56641-0.0625 0.83203-0.19922l4.0938-2.0664c6.2227 1.668 10.5 4.4688 12.605 6.1133-0.81641 0.69531-1.6211 1.3828-2.4258 2.0547-11.812 1.5703-19.527 1.4062-27.027-3.5586l1.6641-2.3672c0.3125-0.44141 0.41406-1 0.28125-1.5273-0.13672-0.52344-0.49609-0.96484-0.98047-1.2031-2.7188-1.3281-4.4414-4.6875-5.3203-6.8984 3.8438-0.22266 8.3516 0.23438 8.4062 0.24219 0.66016 0.054687 1.3125-0.22656 1.6992-0.76953 0.38672-0.54297 0.45312-1.2539 0.17188-1.8555l-0.67188-1.4414c8.5273-1.7148 13.727 0.91016 13.773 0.9375 0.85547 0.45703 1.9141 0.17969 2.4336-0.63281 0.52344-0.81641 0.32813-1.8945-0.44141-2.4766-5.3906-4.082-5.6562-12.289-5.4414-16.18l3.2031 0.97266c0.51953 0.15234 1.0781 0.078125 1.5352-0.21094 0.45703-0.29297 0.76172-0.76953 0.83594-1.3086 0.86328-6.2539 2.7617-8.8711 3.7383-9.8359 3.7109 2.5234 4.3672 6.207 4.3945 6.3633 0.10547 0.66797 0.5625 1.2266 1.1992 1.4609 0.63281 0.23047 1.3477 0.09375 1.8555-0.35547l0.78516-0.69531c0.80859 4.1367 0.53516 8.375 0.25781 10.793-0.31641 2.7266 1.6484 5.2578 4.3867 5.6445 2.3281 0.32812 4.5977-0.98047 5.4766-3.1836l3.8281-9.6211c3.4102-8.293 10.387-10.215 13.883-10.648l-0.25391 1.7344c-0.10547 0.73047 0.23047 1.4531 0.85547 1.8438 0.625 0.39453 1.4297 0.36719 2.0312-0.050782 2.4727-1.7188 7.5781-1.7812 10.555-1.5742 0.75 11.246-5.043 18.547-5.1016 18.617-0.38281 0.46484-0.51172 1.0859-0.35156 1.6641 0.16016 0.57812 0.58984 1.043 1.1562 1.25l2.5508 0.92188c-1.3359 3.2422-4.4258 5.2188-6.9688 6.8477-0.38281 0.24609-0.74609 0.47656-1.082 0.70312-1.8789 1.25-2.9258 3.4141-2.7148 5.7891 0.26953 2.9844 2.6172 5.3125 5.5859 5.5312 3.2031 0.23828 5.7031 0.96875 7.4688 1.6914l-1.2852 0.51953c-0.61328 0.25-1.0469 0.80469-1.1406 1.4609s0.17578 1.3125 0.69531 1.7188l6.3594 4.957c-2.5352 2.0547-6.8203 2.8203-8.5078 2.9492z"/>
<text x="0.0" y="117.5" font-size="5.0" font-weight="bold" font-family="Arbeit Regular, Helvetica, Arial-Unicode, Arial, Sans-serif" fill="#000000">Created by Gofficon</text><text x="0.0" y="122.5" font-size="5.0" font-weight="bold" font-family="Arbeit Regular, Helvetica, Arial-Unicode, Arial, Sans-serif" fill="#000000">from Noun Project</text></svg>